Coordinates
version=1
nRows=7
nColumns=46
inDegrees=yes

Units are S.I. units (second, meters, Newtons, ...)
Angles are in degrees.

endheader
time	pelvis_tilt	pelvis_list	pelvis_rotation	pelvis_tx	pelvis_ty	pelvis_tz	bb_angle	bb_tx	bb_ty	bb_tz	hip_flexion_r	hip_adduction_r	hip_rotation_r	knee_angle_r	knee_angle_r_beta	ankle_angle_r	subtalar_angle_r	mtp_angle_r	crank_angle_r	hip_flexion_l	hip_adduction_l	hip_rotation_l	knee_angle_l	knee_angle_l_beta	ankle_angle_l	subtalar_angle_l	mtp_angle_l	crank_angle_l	lumbar_extension	lumbar_bending	lumbar_rotation	arm_flex_r	arm_add_r	arm_rot_r	elbow_flex_r	pro_sup_r	wrist_flex_r	wrist_dev_r	arm_flex_l	arm_add_l	arm_rot_l	elbow_flex_l	pro_sup_l	wrist_flex_l	wrist_dev_l
      5.00500000	     -9.42196988	      6.66134258	      2.90653227	      0.18568708	      1.04694498	     -0.21453010	      0.00000000	      0.50000000	      0.00000000	      0.25000000	     35.29040433	     -9.39332111	      2.34732287	     32.00723376	      0.55863161	     -1.19341925	     -0.34921575	      0.00000000	      0.00000000	     74.04164060	      0.30070554	      5.78614752	    117.49672474	      2.05070471	      8.06338800	     -0.53972062	      0.00000000	      0.00000000	    -68.23494839	     -5.01036047	    -14.23886331	     83.93280480	    -13.61792265	     27.56280507	     61.43614140	     42.08371898	      0.00000000	      0.00000000	     81.17023279	    -25.01867316	     20.11716035	     78.44638821	     47.00510500	      0.00000000	      0.00000000
      5.01000000	     -9.76087665	      7.01650903	      3.42920931	      0.18551184	      1.04731476	     -0.21382937	      0.00000000	      0.50000000	      0.00000000	      0.25000000	     34.65694269	     -9.92541868	      2.10285573	     31.41872923	      0.54836027	     -2.00069569	     -0.26040783	      0.00000000	      0.00000000	     75.72367565	      0.71126124	      5.71743988	    117.73914670	      2.05493577	      8.06049786	     -0.22963709	      0.00000000	      0.00000000	    -68.12087880	     -5.23081226	    -14.80057163	     83.72373527	    -13.85171836	     27.40745236	     61.41820946	     42.10693303	      0.00000000	      0.00000000	     81.60946901	    -24.75193987	     20.32296049	     78.44290068	     47.01548876	      0.00000000	      0.00000000
      5.01500000	    -10.06656636	      7.28295229	      3.95361570	      0.18507489	      1.04782945	     -0.21306372	      0.00000000	      0.50000000	      0.00000000	      0.25000000	     34.12968784	    -10.32744010	      1.86628381	     31.08637027	      0.54255951	     -3.12942289	     -0.92212472	      0.00000000	      0.00000000	     77.31675786	      1.05708231	      5.73316633	    117.81148037	      2.05619823	      8.20654206	      0.50028263	      0.00000000	      0.00000000	    -68.08243145	     -5.58978181	    -14.79826721	     82.85304125	    -14.68560833	     26.09565529	     62.32164377	     42.50569238	      0.00000000	      0.00000000	     82.88297642	    -24.05027069	     22.29943276	     77.16232134	     46.93643623	      0.00000000	      0.00000000
      5.02000000	    -10.34481824	      7.58413463	      4.50096170	      0.18448019	      1.04863935	     -0.21274045	      0.00000000	      0.50000000	      0.00000000	      0.25000000	     33.65551332	    -10.84734634	      1.54766108	     30.95235235	      0.54022046	     -3.79256211	     -1.02658186	      0.00000000	      0.00000000	     78.73951159	      1.53395826	      5.62071071	    117.62199790	      2.05289114	      8.19348241	      0.84862914	      0.00000000	      0.00000000	    -68.09884283	     -5.68020427	    -15.31355491	     82.80974124	    -14.95609855	     25.95615543	     62.28057426	     42.52401981	      0.00000000	      0.00000000	     83.28978645	    -23.76213075	     22.41279443	     77.18929128	     46.94189440	      0.00000000	      0.00000000
      5.02500000	    -10.69331612	      7.85406327	      5.07209805	      0.18381733	      1.04940254	     -0.21241998	      0.00000000	      0.50000000	      0.00000000	      0.25000000	     33.39069946	    -11.33731020	      1.19791796	     31.08485527	      0.54253307	     -4.65354193	     -1.36764730	      0.00000000	      0.00000000	     80.12352380	      1.99748257	      5.49966463	    117.26815939	      2.04671549	      8.32681896	      1.26123631	      0.00000000	      0.00000000	    -68.07016556	     -5.74778075	    -15.76682968	     82.70089647	    -15.25650758	     25.75818068	     62.26874860	     42.54758099	      0.00000000	      0.00000000	     83.82458719	    -23.45717401	     22.68551525	     77.15000963	     46.94791475	      0.00000000	      0.00000000
      5.03000000	    -11.08237468	      8.03288321	      5.45932299	      0.18304831	      1.05007345	     -0.21172534	      0.00000000	      0.50000000	      0.00000000	      0.25000000	     33.34509092	    -11.56741617	      1.16825436	     31.46673843	      0.54919819	     -5.53198902	     -2.22200720	      0.00000000	      0.00000000	     81.41067728	      2.21814822	      5.42017707	    116.76886119	      2.03800109	      8.59284423	      1.78583900	      0.00000000	      0.00000000	    -68.02264276	     -6.16777255	    -15.46025586	     81.65617114	    -16.54225820	     24.38920941	     63.76178944	     43.31112709	      0.00000000	      0.00000000	     85.06565534	    -22.29444993	     24.42484377	     75.53582813	     46.70825846	      0.00000000	      0.00000000
      5.03500000	    -11.39625197	      8.14646330	      5.90257355	      0.18221672	      1.05094211	     -0.21150762	      0.00000000	      0.50000000	      0.00000000	      0.25000000	     33.33073015	    -11.83338520	      1.01488067	     32.12463793	      0.56068070	     -6.23744354	     -2.58152695	      0.00000000	      0.00000000	     82.49317439	      2.50259181	      5.26699036	    116.08829963	      2.02612305	      8.82698659	      1.93958458	      0.00000000	      0.00000000	    -68.01758908	     -6.15517163	    -15.75124724	     81.70502806	    -16.72783466	     24.26565434	     63.71002137	     43.32474803	      0.00000000	      0.00000000	     85.49027108	    -22.08068110	     24.49038124	     75.62139243	     46.71582324	      0.00000000	      0.00000000
